<?xml version="1.0" encoding="UTF-8" standalone="no"?>
<!DOCTYPE svg PUBLIC "-//W3C//DTD SVG 1.1//EN" "http://www.w3.org/Graphics/SVG/1.1/DTD/svg11.dtd">
<svg width="100%" height="100%" viewBox="0 0 3507 2817" version="1.1" xmlns="http://www.w3.org/2000/svg" xmlns:xlink="http://www.w3.org/1999/xlink" xml:space="preserve" xmlns:serif="http://www.serif.com/" style="fill-rule:evenodd;clip-rule:evenodd;stroke-linejoin:round;stroke-miterlimit:2;">
    <g transform="matrix(1,0,0,1,-727.172463,-345.54417)">
        <g transform="matrix(18.125043,0,0,18.125043,-4474.252117,-4376.156678)">
            <g transform="matrix(1,0,0,1,-128.316807,145.226774)">
                <path d="M421.524,134.961C422.291,134.84 424.024,135.154 424.706,135.306C425.056,135.384 425.378,135.664 425.617,135.875C425.831,136.063 426.139,136.281 426.143,136.571C426.248,145.342 426.197,160.716 426.25,188.501C426.301,215.059 426.137,214.998 426.173,241.513C426.175,242.503 426.156,244.202 428.511,244.176C439.063,244.062 438.988,243.896 449.488,243.914C452.15,244.172 454.812,244.429 457.474,244.686C466.486,245.904 472.244,247.149 473.516,247.424C478.276,248.785 478.225,248.982 478.642,248.89C478.763,248.863 479.163,248.774 478.944,247.366C478.851,246.766 474.963,245.22 473.515,244.473C469.531,242.808 469.606,242.783 465.594,241.242C444.833,233.268 439.013,236.189 435.674,233.303C432.51,230.569 433.857,227.388 433.649,134.491C433.623,132.161 433.598,129.832 433.573,127.502C433.634,123.804 433.303,121.501 433.813,119.555C434.207,118.048 435.609,116.518 436.63,115.826C437.55,115.203 438.79,115.323 439.883,115.313C455.962,115.164 493.69,129.574 502.592,141.466C503.185,145.471 502.895,152.68 502.895,152.68C502.892,152.98 502.485,153.48 502.485,153.48C502.485,153.48 501.731,153.961 500.796,153.119C499.356,151.823 488.484,142.042 481.526,138.454C464.235,129.538 455.537,127.51 445.718,126.555L445.436,126.596C445.436,126.596 445.408,126.554 445.063,126.766C444.168,127.317 444.046,127.889 443.93,128.57C443.747,129.651 443.899,131.208 443.86,133.509L443.848,136.497C443.846,163.834 443.843,191.171 443.84,218.508C443.886,219.832 443.785,221.159 443.83,222.483C443.973,226.625 449.879,225.319 459.567,228.316C491.552,238.208 504.413,253.79 506.367,253.135C507.508,252.752 507.145,248.155 507.116,241.52C507.188,238.406 506.592,238.155 508.637,235.742C514.805,232.823 517.2,229.903 517.426,234.504L517.417,238.498C517.403,239.541 517.263,249.722 517.355,251.537C517.497,254.334 519.07,252.218 528.148,246.044C557.103,226.351 575.134,227.386 579.588,224.567C579.676,224.207 580.361,224.223 580,193.497C579.95,181.585 580.016,178.78 580.046,177.5C580.102,175.085 580.003,175.099 579.971,158.499C580.345,134.306 580.03,129.816 579.855,127.329C579.636,127.163 579.612,126.813 579.393,126.646C576.919,124.766 552.962,131.771 538.832,140.998C534.261,143.983 533.83,141.812 530.645,137.398C529.326,135.57 529.452,133.833 547.735,124.922C564.142,116.925 581.458,115.557 584.488,115.318C591.777,114.742 590.49,120.551 590.59,145.499C590.927,229.849 591.678,230.819 588.405,233.373C585.844,235.372 585.549,234.505 580.468,235.287C572.906,236.45 556.784,241.159 545.242,247.318C541.681,249.218 545.345,249.332 545.497,249.286C557.297,245.696 557.363,246.276 569.488,244.419C570.835,244.271 572.182,244.123 573.529,243.975C595.53,243.401 596.059,245.235 597.543,243.528C598.218,242.751 597.868,242.578 597.886,137.517C598.582,135.776 598.549,134.16 605.494,135.518C609.245,137.647 608.598,140.391 608.598,145.502C608.593,176.835 608.587,208.167 608.581,239.5C608.586,250.618 610.683,255.281 599.531,255.082C597.851,254.927 596.171,254.772 594.491,254.617C589.731,254.316 562.207,252.578 535.331,262.016L530.494,263.48C523.417,266.424 523.455,266.347 515.353,270.149C513.409,270.591 513.487,270.706 511.462,270.687C509.96,270.142 487.57,259.972 473.515,257.416C452.695,253.63 452.652,253.628 431.495,254.441C425.027,254.967 425.045,254.996 424.483,255.037C421.78,255.087 415.954,256.305 415.518,249.499C415.059,242.313 415.439,242.338 415.439,159.5C415.438,139.151 414.04,136.138 421.524,134.961Z" style="fill:rgb(230,94,40);"/>
            </g>
        </g>
        <g transform="matrix(18.125043,0,0,18.125043,-4474.252117,-4376.156678)">
            <g transform="matrix(1,0,0,1,-128.316807,145.226774)">
                <path d="M480.714,218.447C480.494,217.796 480.385,216.402 480.385,216.402C480.385,216.402 480.322,215.125 480.38,214.491C480.441,213.825 480.55,213.425 480.821,212.409C481.547,209.681 483.36,205.052 487.824,201.897C499.9,193.363 509.73,197.686 509.73,197.686C509.73,197.686 510.066,192.689 510.136,190.492C510.2,188.498 510.147,186.502 510.152,184.507C510.071,170.958 510.194,171.038 509.981,157.499C509.983,157.276 509.947,144.616 509.944,143.496C510.119,135.311 509.879,135.36 510.426,132.457C511.343,131.6 511.196,131.383 512.432,131.182C519.456,130.04 519.52,133.396 519.929,134.297C528.011,152.111 544.998,152.123 547.022,174.51C547.102,175.399 547.217,176.343 547.167,177.225C547.11,178.229 546.964,179.388 546.679,180.531C546.468,181.377 544.897,187.678 542.915,190.761C542.529,191.36 538.553,197.544 536.618,197.063C533.446,196.273 541.939,189.784 538.726,176.448C536.017,165.205 521.976,160.829 521.453,160.705C517.496,159.765 519.562,163.04 519.096,211.493C518.752,214.683 518.743,214.619 517.623,217.571C515.895,220.355 516.045,220.398 513.901,222.861C506.342,231.547 489.211,233.563 482.362,222.07C481.715,220.985 481.032,219.392 480.714,218.447Z" style="fill:white;"/>
            </g>
        </g>
    </g>
</svg>
