<?xml version="1.0" encoding="UTF-8" standalone="no"?>
<!DOCTYPE svg PUBLIC "-//W3C//DTD SVG 1.1//EN" "http://www.w3.org/Graphics/SVG/1.1/DTD/svg11.dtd">
<svg width="100%" height="100%" viewBox="0 0 4686 806" version="1.1" xmlns="http://www.w3.org/2000/svg" xmlns:xlink="http://www.w3.org/1999/xlink" xml:space="preserve" xmlns:serif="http://www.serif.com/" style="fill-rule:evenodd;clip-rule:evenodd;stroke-linejoin:round;stroke-miterlimit:2;">
    <g transform="matrix(1,0,0,1,-5333.729898,-5111.646176)">
        <g transform="matrix(5.182888,0,0,5.182888,5981.636769,3317.664601)">
            <g transform="matrix(1,0,0,1,-540.300121,230.855279)">
                <path d="M421.524,134.961C422.291,134.84 424.024,135.154 424.706,135.306C425.056,135.384 425.378,135.664 425.617,135.875C425.831,136.063 426.139,136.281 426.143,136.571C426.248,145.342 426.197,160.716 426.25,188.501C426.301,215.059 426.137,214.998 426.173,241.513C426.175,242.503 426.156,244.202 428.511,244.176C439.063,244.062 438.988,243.896 449.488,243.914C452.15,244.172 454.812,244.429 457.474,244.686C466.486,245.904 472.244,247.149 473.516,247.424C478.276,248.785 478.225,248.982 478.642,248.89C478.763,248.863 479.163,248.774 478.944,247.366C478.851,246.766 474.963,245.22 473.515,244.473C469.531,242.808 469.606,242.783 465.594,241.242C444.833,233.268 439.013,236.189 435.674,233.303C432.51,230.569 433.857,227.388 433.649,134.491C433.623,132.161 433.598,129.832 433.573,127.502C433.634,123.804 433.303,121.501 433.813,119.555C434.207,118.048 435.609,116.518 436.63,115.826C437.55,115.203 438.79,115.323 439.883,115.313C455.962,115.164 493.69,129.574 502.592,141.466C503.185,145.471 502.895,152.68 502.895,152.68C502.892,152.98 502.485,153.48 502.485,153.48C502.485,153.48 501.731,153.961 500.796,153.119C499.356,151.823 488.484,142.042 481.526,138.454C464.235,129.538 455.537,127.51 445.718,126.555L445.436,126.596C445.436,126.596 445.408,126.554 445.063,126.766C444.168,127.317 444.046,127.889 443.93,128.57C443.747,129.651 443.899,131.208 443.86,133.509L443.848,136.497C443.846,163.834 443.843,191.171 443.84,218.508C443.886,219.832 443.785,221.159 443.83,222.483C443.973,226.625 449.879,225.319 459.567,228.316C491.552,238.208 504.413,253.79 506.367,253.135C507.508,252.752 507.145,248.155 507.116,241.52C507.188,238.406 506.592,238.155 508.637,235.742C514.805,232.823 517.2,229.903 517.426,234.504L517.417,238.498C517.403,239.541 517.263,249.722 517.355,251.537C517.497,254.334 519.07,252.218 528.148,246.044C557.103,226.351 575.134,227.386 579.588,224.567C579.676,224.207 580.361,224.223 580,193.497C579.95,181.585 580.016,178.78 580.046,177.5C580.102,175.085 580.003,175.099 579.971,158.499C580.345,134.306 580.03,129.816 579.855,127.329C579.636,127.163 579.612,126.813 579.393,126.646C576.919,124.766 552.962,131.771 538.832,140.998C534.261,143.983 533.83,141.812 530.645,137.398C529.326,135.57 529.452,133.833 547.735,124.922C564.142,116.925 581.458,115.557 584.488,115.318C591.777,114.742 590.49,120.551 590.59,145.499C590.927,229.849 591.678,230.819 588.405,233.373C585.844,235.372 585.549,234.505 580.468,235.287C572.906,236.45 556.784,241.159 545.242,247.318C541.681,249.218 545.345,249.332 545.497,249.286C557.297,245.696 557.363,246.276 569.488,244.419C570.835,244.271 572.182,244.123 573.529,243.975C595.53,243.401 596.059,245.235 597.543,243.528C598.218,242.751 597.868,242.578 597.886,137.517C598.582,135.776 598.549,134.16 605.494,135.518C609.245,137.647 608.598,140.391 608.598,145.502C608.593,176.835 608.587,208.167 608.581,239.5C608.586,250.618 610.683,255.281 599.531,255.082C597.851,254.927 596.171,254.772 594.491,254.617C589.731,254.316 562.207,252.578 535.331,262.016L530.494,263.48C523.417,266.424 523.455,266.347 515.353,270.149C513.409,270.591 513.487,270.706 511.462,270.687C509.96,270.142 487.57,259.972 473.515,257.416C452.695,253.63 452.652,253.628 431.495,254.441C425.027,254.967 425.045,254.996 424.483,255.037C421.78,255.087 415.954,256.305 415.518,249.499C415.059,242.313 415.439,242.338 415.439,159.5C415.438,139.151 414.04,136.138 421.524,134.961Z" style="fill:rgb(230,94,40);"/>
            </g>
        </g>
        <g transform="matrix(5.182888,0,0,5.182888,5981.636769,3317.664601)">
            <g transform="matrix(1,0,0,1,146.097748,14.542364)">
                <path d="M397.506,442.683L392.492,442.646C387.967,441.932 389.724,440.078 389.725,435.499C389.736,398.867 389.345,379.885 390.342,379.322C392.163,378.294 392.284,378.38 416.482,378.911C450.984,379.668 458.527,430.107 424.419,441.209L419.453,442.15C413.512,442.643 413.538,442.453 397.506,442.683ZM401.154,426.511C401.364,430.86 400.117,431.798 402.504,432.488C402.862,432.591 415.395,433.002 419.365,432.001C441.017,426.543 439.008,389.569 415.494,388.793C402.188,388.354 401.258,388.861 401.165,390.438C401.049,392.415 401.167,392.409 401.154,426.511Z" style="fill:rgb(230,95,41);"/>
            </g>
        </g>
        <g transform="matrix(5.182888,0,0,5.182888,5981.636769,3317.664601)">
            <g transform="matrix(1,0,0,1,146.097748,14.542364)">
                <path d="M489.465,395.111C492.522,395.13 492.483,395.12 495.44,395.708C495.953,395.879 499.707,396.403 503.468,400.548C505.457,402.74 505.438,398.72 505.437,398.492C505.419,394.642 515.077,396.465 515.368,396.69C516.059,397.223 516.186,397.439 516.079,440.495C515.824,443.051 515.831,442.974 515.34,445.459C508.136,472.577 468.778,459.401 472.998,452.794C475.543,448.809 475.77,446.606 479.694,449.203C485.813,453.254 500.798,456.837 504.816,443.57C504.896,443.049 506.077,437.632 504.458,436.915C504.443,436.908 504.242,436.507 501.249,439.033C496.46,442.02 494.918,441.923 492.495,442.473C490.48,442.736 490.525,442.732 488.485,442.657C483.346,441.493 483.116,442.029 478.841,439.034C472.031,434.264 468.068,422.408 470.669,412.545C473.916,400.234 479.841,396.328 489.465,395.111ZM481.02,421.56C484.557,439.985 505.168,433.262 505.238,423.493C505.299,415.053 506.934,408.457 498.594,405.242C492.827,403.02 479.261,404.722 481.02,421.56Z" style="fill:rgb(229,95,40);"/>
            </g>
        </g>
        <g transform="matrix(5.182888,0,0,5.182888,5981.636769,3317.664601)">
            <g transform="matrix(1,0,0,1,-540.300121,230.855279)">
                <path d="M480.714,218.447C480.494,217.796 480.385,216.402 480.385,216.402C480.385,216.402 480.322,215.125 480.38,214.491C480.441,213.825 480.55,213.425 480.821,212.409C481.547,209.681 483.36,205.052 487.824,201.897C499.9,193.363 509.73,197.686 509.73,197.686C509.73,197.686 510.066,192.689 510.136,190.492C510.2,188.498 510.147,186.502 510.152,184.507C510.071,170.958 510.194,171.038 509.981,157.499C509.983,157.276 509.947,144.616 509.944,143.496C510.119,135.311 509.879,135.36 510.426,132.457C511.343,131.6 511.196,131.383 512.432,131.182C519.456,130.04 519.52,133.396 519.929,134.297C528.011,152.111 544.998,152.123 547.022,174.51C547.102,175.399 547.217,176.343 547.167,177.225C547.11,178.229 546.964,179.388 546.679,180.531C546.468,181.377 544.897,187.678 542.915,190.761C542.529,191.36 538.553,197.544 536.618,197.063C533.446,196.273 541.939,189.784 538.726,176.448C536.017,165.205 521.976,160.829 521.453,160.705C517.496,159.765 519.562,163.04 519.096,211.493C518.752,214.683 518.743,214.619 517.623,217.571C515.895,220.355 516.045,220.398 513.901,222.861C506.342,231.547 489.211,233.563 482.362,222.07C481.715,220.985 481.032,219.392 480.714,218.447Z" style="fill:white;"/>
            </g>
        </g>
        <g transform="matrix(5.182888,0,0,5.182888,5981.636769,3317.664601)">
            <g transform="matrix(1,-0.00089,0.00089,1,-205.205569,96.368904)">
                <path d="M692.998,352.167C676.601,324.38 709.767,301.302 730.057,319.935C741.404,330.355 739.873,361.397 712.503,362.074C711.848,362.09 711.193,362.014 710.538,362.03L708.453,361.78C698.573,359.077 698.661,358.538 692.998,352.167ZM721.767,348.731C734.238,333.049 715.303,313.628 703.715,326.684C694.267,337.33 702.801,357.193 717.553,351.649C719.986,350.736 719.81,350.534 721.767,348.731Z" style="fill:rgb(251,251,250);"/>
            </g>
        </g>
        <g transform="matrix(5.182888,0,0,5.182888,5981.636769,3317.664601)">
            <g transform="matrix(1,-0.00089,0.00089,1,-205.205569,96.368904)">
                <path d="M508.89,332.58L509.154,331.414C510.137,328.491 510.54,324.459 516.76,318.812C525.107,311.236 554.492,306.926 556.367,338.494L556.008,342.434C555.348,345.048 550.396,364.68 528.449,361.823C517.083,360.344 506.897,348.512 508.45,335.493C508.567,334.518 508.774,333.555 508.89,332.58ZM530.524,322.64C513.8,326.78 518.085,348.914 528.625,352.044C548.556,357.965 551.773,320.563 530.524,322.64Z" style="fill:rgb(251,251,250);"/>
            </g>
        </g>
        <g transform="matrix(5.182888,0,0,5.182888,5981.636769,3317.664601)">
            <g transform="matrix(1,-0.00089,0.00089,1,-205.205569,96.368904)">
                <path d="M361.526,362.065C338.583,358.954 342.838,333.391 360.541,331.935C370.671,331.102 375.087,335.158 375.54,335.328C378.602,336.475 378.921,320.377 364.461,322.188C358.288,322.962 353.641,327.017 353.407,327.083C351.987,327.478 349.044,321.884 348.962,321.399C348.056,316.001 387.696,301.04 387.762,333.501C387.812,357.502 388.221,357.537 387.711,359.558C387.201,361.583 379.772,360.908 379.477,360.904C376.82,360.872 377.232,359.424 377.211,358.546C377.17,356.808 375.641,357.199 374.822,357.909C370.077,362.019 366.895,362 361.526,362.065ZM365.527,338.906C348.97,341.673 358.872,359.036 371.616,353.772C381.252,349.792 377.293,339.333 368.472,338.921C367.492,338.875 366.508,338.952 365.527,338.906Z" style="fill:rgb(251,251,250);"/>
            </g>
        </g>
        <g transform="matrix(5.182888,0,0,5.182888,5981.636769,3317.664601)">
            <g transform="matrix(1,-0.00089,0.00089,1,-205.205569,96.368904)">
                <path d="M320.526,361.95C274.328,362.787 276.208,296.307 318.5,296.414C335.681,296.457 344.056,309.691 342.19,311.166C340.053,312.855 335.87,314.798 335.295,315.064C331.268,316.934 330.848,305.015 314.557,306.96C292.693,309.57 291.787,351.531 318.504,351.817C328.113,351.919 332.659,342.503 334.462,342.806C334.782,342.86 342.537,346.091 342.737,347.446C343.04,349.501 335.955,358.144 327.53,360.598C323.113,361.885 321.153,361.879 320.526,361.95Z" style="fill:rgb(251,251,250);"/>
            </g>
        </g>
        <g transform="matrix(5.182888,0,0,5.182888,5981.636769,3317.664601)">
            <g transform="matrix(1,-0.00089,0.00089,1,-205.205569,96.368904)">
                <path d="M656.15,339.467C655.852,339.76 655.881,340.292 655.584,340.584C654.907,341.25 649.034,341.046 643.502,341.012C640.896,340.966 635.775,340.827 625.499,341.064C623.968,341.147 619.848,340.033 622.41,345.544C625.71,352.644 636.665,356.773 646.595,349.645C646.989,349.362 648.637,346.969 652.172,353.679C652.524,354.347 653.996,357.141 645.416,360.265C624.161,368.004 605.313,351.301 611.491,329.497C615.06,316.902 629.644,310.46 640.573,314.29C657.386,320.181 656.503,337.823 656.15,339.467ZM627.97,324.217C627.186,324.707 620.311,328.999 621.191,333.584C621.447,334.915 622.145,334.305 639.157,334.57C644.244,334.649 644.321,334.93 645.005,334.405C647.438,332.54 640.185,318.6 627.97,324.217Z" style="fill:rgb(251,251,250);"/>
            </g>
        </g>
        <g transform="matrix(5.182888,0,0,5.182888,5981.636769,3317.664601)">
            <g transform="matrix(1,-0.00089,0.00089,1,-205.205569,96.368904)">
                <path d="M406.815,318.422C406.797,318.628 407.1,319.579 407.403,319.649C407.772,319.735 408.093,319.37 408.298,319.161C417.703,309.049 437.428,311.841 438.021,327.513C438.024,327.596 438.318,358.327 437.879,359.645C437.327,361.305 431.849,361.024 429.468,360.887C426.198,360.698 427.136,356.041 427.133,350.503C427.139,348.167 427.144,345.832 427.15,343.496C427.155,341.165 427.16,338.834 427.165,336.503C427.129,333.729 427.24,333.793 426.976,330.462C425.168,316.891 406.746,322.889 406.976,331.5C407.151,338.058 407.044,337.988 407.048,344.5C407.005,347.529 407.006,347.485 407.046,350.499C407.053,355.781 408.002,360.872 404.515,360.899C402.93,360.912 396.288,361.975 396.241,358.511C396.194,355.068 395.685,317.475 396.436,315.47C397.234,313.339 398.049,314.516 403.501,314.425L404.502,314.438C407.145,315.034 406.711,315.742 406.815,318.422Z" style="fill:rgb(251,251,250);"/>
            </g>
        </g>
        <g transform="matrix(5.182888,0,0,5.182888,5981.636769,3317.664601)">
            <g transform="matrix(1,-0.00089,0.00089,1,-205.205569,96.368904)">
                <path d="M581.534,314.586C605.584,308.363 603.978,328.281 604.103,332.497C604.098,335.498 604.093,338.499 604.087,341.499C603.781,358.564 605.082,360.885 601.52,360.92C600.898,360.926 594.358,360.991 593.765,360.276C591.55,357.609 596.571,330.206 590.419,324.591C588.439,322.784 584.657,322.451 583.507,322.584C578.419,323.176 574.99,326.836 574.427,327.437C573.28,329.494 572.965,332.768 572.938,337.14C572.904,342.614 573.32,349.81 573.116,358.489C573.075,360.234 572.495,360.877 570.51,360.893C568.962,360.905 562.288,362.005 562.228,358.506C562.211,357.504 562.251,356.502 562.234,355.5C562.234,346.833 562.234,338.166 562.234,329.499C562.249,322.441 562.145,322.498 562.404,315.463C564.275,313.735 566.19,314.32 571.503,314.482C574.017,316.152 571.598,317.543 573.155,318.793C574.194,319.627 574.319,319.228 575.324,318.278C578.427,315.344 579.823,315.431 581.534,314.586Z" style="fill:rgb(252,252,251);"/>
            </g>
        </g>
        <g transform="matrix(5.182888,0,0,5.182888,5981.636769,3317.664601)">
            <g transform="matrix(1,-0.00089,0.00089,1,-205.205569,96.368904)">
                <path d="M464.393,323.126C451.292,328.083 455.043,342.301 457.045,345.771C463.529,355.508 472.454,353.632 477.786,348.801C478.991,347.709 479.833,346.791 485.162,351.839C490.016,356.439 474.699,361.303 473.538,361.672L471.452,362.002C464.13,361.937 447.811,362.217 444.129,340.527C444.116,339.177 444.104,337.827 444.091,336.477C444.155,335.485 444.568,329.054 447.584,324.556C462.12,302.877 487.763,318.087 485.358,322.435C485.077,322.943 480.47,327.022 480.295,327.12C476.968,328.963 477.311,320.411 464.393,323.126Z" style="fill:rgb(251,251,250);"/>
            </g>
        </g>
        <g transform="matrix(5.182888,0,0,5.182888,5981.636769,3317.664601)">
            <g transform="matrix(1,0,0,1,146.097748,14.542364)">
                <path d="M540.883,396.705C541.303,396.335 542.288,396.238 542.807,396.182C543.491,396.108 544.083,396.166 545.446,396.069C547.742,395.907 547.304,389.492 547.304,389.492C547.304,389.492 545.541,383.425 551.496,383.375C552.03,383.371 557.587,383.324 558.035,384.688C558.722,386.779 556.49,395.94 560.532,396.162C566.673,396.498 567.26,395.78 567.821,397.339C568.012,397.87 568.37,403.681 567.577,404.561C566.228,406.056 558.545,403.757 558.173,407.452C558.14,407.773 558.141,427.26 558.203,428.517C558.613,436.821 566.567,431.32 568.011,434.727C569.288,437.741 572.088,441.513 564.435,443.176C558.562,444.452 555.141,443.055 554.397,442.751C548.256,440.242 547.742,433.895 547.635,433.473C547.135,429.503 547.268,429.536 547.294,425.493L547.316,424.497C547.33,422.164 547.344,419.832 547.358,417.499C547.367,412.661 548.211,405.665 545.515,405.411C543.674,405.237 538.55,406.377 540.283,398.4C540.397,397.875 540.462,397.075 540.883,396.705Z" style="fill:rgb(230,94,40);"/>
            </g>
        </g>
        <g transform="matrix(5.182888,0,0,5.182888,5981.636769,3317.664601)">
            <g transform="matrix(1,-0.00089,0.00089,1,-205.205569,96.368904)">
                <path d="M661.878,337.494C661.853,319.034 661.801,316.217 662.174,315.32C662.431,314.701 662.772,313.881 670.511,314.399C673.251,314.582 672.303,315.745 672.289,318.54C672.275,321.145 674.212,319.423 674.343,319.306C676.814,317.109 676.498,316.601 681.526,314.569C687.865,312.006 687.752,315.661 687.452,322.494C687.339,325.066 682.459,322.871 678.575,324.68C670.472,328.453 673.068,334.596 672.794,358.511C672.785,359.283 672.753,362.114 663.428,360.827C661.118,360.508 661.867,352.928 661.867,352.499C661.871,347.497 661.874,342.496 661.878,337.494Z" style="fill:rgb(251,251,250);"/>
            </g>
        </g>
        <g transform="matrix(5.182888,0,0,5.182888,5981.636769,3317.664601)">
            <g transform="matrix(1,-0.00089,0.00089,1,-205.205569,96.368904)">
                <path d="M498.502,314.296C501.245,314.501 502.437,313.703 502.503,316.5C502.583,319.859 503.068,340.221 502.513,358.5C502.511,358.559 502.691,360.79 500.553,360.881C497.797,360.999 492.487,361.475 491.767,359.451C491.697,359.254 491.646,316.16 491.789,315.577C492.279,313.583 493.123,314.551 498.502,314.296Z" style="fill:rgb(252,252,252);"/>
            </g>
        </g>
        <g transform="matrix(5.182888,0,0,5.182888,5981.636769,3317.664601)">
            <g transform="matrix(1,0,0,1,146.097748,14.542364)">
                <path d="M525.448,396.408C526.679,396.345 531.536,395.223 535.044,396.863C535.731,399.617 535.764,440.923 534.935,441.86C534.85,441.956 534.829,441.914 533.513,442.585C531.508,442.578 529.503,442.57 527.497,442.563C522.956,441.886 524.627,440.056 524.681,435.502C524.705,433.422 524.666,433.438 524.621,409.501C524.6,398.376 524.138,398.187 525.448,396.408Z" style="fill:rgb(230,95,40);"/>
            </g>
        </g>
        <g transform="matrix(5.182888,0,0,5.182888,5981.636769,3317.664601)">
            <g transform="matrix(1,0,0,1,146.097748,14.542364)">
                <path d="M452.761,398.514C453.977,395.237 454.969,396.37 457.498,396.131C461.345,396.379 463.188,394.624 463.462,398.504C463.477,398.714 463.491,411.38 463.492,412.5C463.468,414.499 463.444,416.499 463.419,418.498C463.35,440.937 463.492,441.12 462.419,442.333C459.092,442.761 459.116,442.552 455.497,442.547C453.802,442.234 453.796,442.281 453.666,442.209C452.685,441.667 452.634,441.298 452.761,398.514Z" style="fill:rgb(231,97,41);"/>
            </g>
        </g>
        <g transform="matrix(5.182888,0,0,5.182888,5981.636769,3317.664601)">
            <g transform="matrix(1,0,0,1,146.097748,14.542364)">
                <path d="M527.363,376.208C534.232,373.521 537.112,380.236 536.438,383.49C534.079,394.874 514.891,384.961 527.363,376.208Z" style="fill:rgb(225,92,40);"/>
            </g>
        </g>
        <g transform="matrix(5.182888,0,0,5.182888,5981.636769,3317.664601)">
            <g transform="matrix(1,0,0,1,146.097748,14.542364)">
                <path d="M451.566,381.507C454.24,371.146 462.179,376.69 463.024,377.891C469.619,387.259 452.292,394.765 451.566,381.507Z" style="fill:rgb(229,94,40);"/>
            </g>
        </g>
        <g transform="matrix(5.182888,0,0,5.182888,5981.636769,3317.664601)">
            <g transform="matrix(1,-0.00089,0.00089,1,-205.205569,96.368904)">
                <path d="M503.229,298.58C505.22,311.277 486.935,307.783 491.309,297.415C492.287,295.097 499.185,289.655 503.229,298.58Z" style="fill:rgb(250,250,248);"/>
            </g>
        </g>
        <g transform="matrix(5.182888,0,0,5.182888,5981.636769,3317.664601)">
            <g transform="matrix(1,0,0,1,146.097748,14.542364)">
                <path d="M572.885,435.252C571.423,431.637 571.131,431.693 571.096,427.458C572.532,415.233 584.606,409.377 599.406,415.714L601.525,416.628C602.936,416.542 602.257,415.86 602.32,411.505C601.211,403.945 591.695,400.229 579.768,407.943C577.544,409.381 577.275,408.48 575.781,406.304C574.562,404.07 574.173,404.104 574.636,401.611C581.308,395.768 585.38,395.966 591.483,395.183C596.027,395.243 595.982,395.161 600.412,395.888C615.105,400.443 613.256,409.546 613.411,427.505L613.375,435.49C613.252,440.181 615.195,442.447 610.506,442.59C606.302,442.719 603.417,443.604 602.78,440.401C602.068,436.828 600.801,441.352 592.49,443.444C588.967,443.852 589.011,443.774 585.483,443.666C579.982,442.422 578.109,442.638 572.885,435.252ZM582.209,428.511C584.404,441.098 601.99,436.772 602.259,429.499C602.334,427.48 603.778,421.69 593.499,420.511C583.505,419.365 582.365,427.415 582.209,428.511Z" style="fill:rgb(230,97,41);"/>
            </g>
        </g>
        <g transform="matrix(5.182888,0,0,5.182888,5981.636769,3317.664601)">
            <g transform="matrix(1,0,0,1,146.097748,14.542364)">
                <path d="M623.573,378.859C624.226,378.847 630.887,378.733 631.734,379.066C633.224,379.652 632.653,380.321 632.808,418.498L632.823,422.502C632.832,431.322 632.838,431.269 632.862,438.488C632.682,440.405 632.899,440.389 632.159,442.099C631.446,442.311 628.187,443.281 622.863,442.003C621.811,439.798 622.14,439.73 622.138,436.522C622.088,379.693 622.383,379.656 622.514,379.511C622.792,379.203 623.295,379.166 623.573,378.859Z" style="fill:rgb(234,100,42);"/>
            </g>
        </g>
    </g>
</svg>
